<svg width="262" height="42" viewBox="0 0 262 42" fill="none" xmlns="http://www.w3.org/2000/svg">
<path d="M45.4708 3C32.895 7.68531 15.7947 18.021 48 22.7203V33H28.3986C12.1866 27.0878 -7.09741 13.0537 44.6277 3.15971C-4.43905 9.83294 8.44589 25.8337 21.0217 33H5.84642C-3.35711 25.1344 -8.48579 8.15462 44.6277 3.15971C44.9067 3.10635 45.1877 3.05312 45.4708 3Z" fill="#2563EB"/>
<path d="M48 22.7203C15.7738 18.021 32.8852 7.68532 45.4692 3C45.1859 3.05312 44.9047 3.10635 44.6255 3.15971C-7.13313 13.0537 12.1634 27.0878 28.3859 33H48V22.7203Z" fill="url(#paint0_linear_8_13)"/>
<path d="M66.7285 7.40625V33H61.4727V7.40625H66.7285ZM74.6035 7.40625V11.5371H53.7207V7.40625H74.6035ZM87.5762 23.877H81.0547V19.7637H87.5762C88.584 19.7637 89.4043 19.5996 90.0371 19.2715C90.6699 18.9316 91.1328 18.4629 91.4258 17.8652C91.7188 17.2676 91.8652 16.5938 91.8652 15.8438C91.8652 15.082 91.7188 14.373 91.4258 13.7168C91.1328 13.0605 90.6699 12.5332 90.0371 12.1348C89.4043 11.7363 88.584 11.5371 87.5762 11.5371H82.8828V33H77.6094V7.40625H87.5762C89.5801 7.40625 91.2969 7.76953 92.7266 8.49609C94.168 9.21094 95.2695 10.2012 96.0312 11.4668C96.793 12.7324 97.1738 14.1797 97.1738 15.8086C97.1738 17.4609 96.793 18.8906 96.0312 20.0977C95.2695 21.3047 94.168 22.2363 92.7266 22.8926C91.2969 23.5488 89.5801 23.877 87.5762 23.877ZM108.301 11.7832L101.34 33H95.7324L105.242 7.40625H108.811L108.301 11.7832ZM114.084 33L107.105 11.7832L106.543 7.40625H110.146L119.709 33H114.084ZM113.768 23.4727V27.6035H100.25V23.4727H113.768ZM139.15 17.8301V21.9434H125.791V17.8301H139.15ZM127.355 7.40625V33H122.082V7.40625H127.355ZM142.912 7.40625V33H137.656V7.40625H142.912ZM162.336 24.5098H167.592C167.486 26.2324 167.012 27.7617 166.168 29.0977C165.336 30.4336 164.17 31.4766 162.67 32.2266C161.182 32.9766 159.389 33.3516 157.291 33.3516C155.65 33.3516 154.18 33.0703 152.879 32.5078C151.578 31.9336 150.465 31.1133 149.539 30.0469C148.625 28.9805 147.928 27.6914 147.447 26.1797C146.967 24.668 146.727 22.9746 146.727 21.0996V19.3242C146.727 17.4492 146.973 15.7559 147.465 14.2441C147.969 12.7207 148.684 11.4258 149.609 10.3594C150.547 9.29297 151.666 8.47266 152.967 7.89844C154.268 7.32422 155.721 7.03711 157.326 7.03711C159.459 7.03711 161.258 7.42383 162.723 8.19727C164.199 8.9707 165.342 10.0371 166.15 11.3965C166.971 12.7559 167.463 14.3027 167.627 16.0371H162.354C162.295 15.0059 162.09 14.1328 161.738 13.418C161.387 12.6914 160.854 12.1465 160.139 11.7832C159.436 11.4082 158.498 11.2207 157.326 11.2207C156.447 11.2207 155.68 11.3848 155.023 11.7129C154.367 12.041 153.816 12.5391 153.371 13.207C152.926 13.875 152.592 14.7188 152.369 15.7383C152.158 16.7461 152.053 17.9297 152.053 19.2891V21.0996C152.053 22.4238 152.152 23.5898 152.352 24.5977C152.551 25.5938 152.855 26.4375 153.266 27.1289C153.688 27.8086 154.227 28.3242 154.883 28.6758C155.551 29.0156 156.354 29.1855 157.291 29.1855C158.393 29.1855 159.301 29.0098 160.016 28.6582C160.73 28.3066 161.275 27.7852 161.65 27.0938C162.037 26.4023 162.266 25.541 162.336 24.5098ZM181.461 11.7832L174.5 33H168.893L178.402 7.40625H181.971L181.461 11.7832ZM187.244 33L180.266 11.7832L179.703 7.40625H183.307L192.869 33H187.244ZM186.928 23.4727V27.6035H173.41V23.4727H186.928ZM212.047 7.40625V11.5371H200.516V33H195.26V7.40625H212.047ZM225.283 23.877H218.762V19.7637H225.283C226.291 19.7637 227.111 19.5996 227.744 19.2715C228.377 18.9316 228.84 18.4629 229.133 17.8652C229.426 17.2676 229.572 16.5938 229.572 15.8438C229.572 15.082 229.426 14.373 229.133 13.7168C228.84 13.0605 228.377 12.5332 227.744 12.1348C227.111 11.7363 226.291 11.5371 225.283 11.5371H220.59V33H215.316V7.40625H225.283C227.287 7.40625 229.004 7.76953 230.434 8.49609C231.875 9.21094 232.977 10.2012 233.738 11.4668C234.5 12.7324 234.881 14.1797 234.881 15.8086C234.881 17.4609 234.5 18.8906 233.738 20.0977C232.977 21.3047 231.875 22.2363 230.434 22.8926C229.004 23.5488 227.287 23.877 225.283 23.877ZM259.543 19.6055V20.8184C259.543 22.7637 259.279 24.5098 258.752 26.0566C258.225 27.6035 257.48 28.9219 256.52 30.0117C255.559 31.0898 254.41 31.916 253.074 32.4902C251.75 33.0645 250.279 33.3516 248.662 33.3516C247.057 33.3516 245.586 33.0645 244.25 32.4902C242.926 31.916 241.777 31.0898 240.805 30.0117C239.832 28.9219 239.076 27.6035 238.537 26.0566C238.01 24.5098 237.746 22.7637 237.746 20.8184V19.6055C237.746 17.6484 238.01 15.9023 238.537 14.3672C239.064 12.8203 239.809 11.502 240.77 10.4121C241.742 9.32227 242.891 8.49023 244.215 7.91602C245.551 7.3418 247.021 7.05469 248.627 7.05469C250.244 7.05469 251.715 7.3418 253.039 7.91602C254.375 8.49023 255.523 9.32227 256.484 10.4121C257.457 11.502 258.207 12.8203 258.734 14.3672C259.273 15.9023 259.543 17.6484 259.543 19.6055ZM254.217 20.8184V19.5703C254.217 18.2109 254.094 17.0156 253.848 15.9844C253.602 14.9531 253.238 14.0859 252.758 13.3828C252.277 12.6797 251.691 12.1523 251 11.8008C250.309 11.4375 249.518 11.2559 248.627 11.2559C247.736 11.2559 246.945 11.4375 246.254 11.8008C245.574 12.1523 244.994 12.6797 244.514 13.3828C244.045 14.0859 243.688 14.9531 243.441 15.9844C243.195 17.0156 243.072 18.2109 243.072 19.5703V20.8184C243.072 22.166 243.195 23.3613 243.441 24.4043C243.688 25.4355 244.051 26.3086 244.531 27.0234C245.012 27.7266 245.598 28.2598 246.289 28.623C246.98 28.9863 247.771 29.168 248.662 29.168C249.553 29.168 250.344 28.9863 251.035 28.623C251.727 28.2598 252.307 27.7266 252.775 27.0234C253.244 26.3086 253.602 25.4355 253.848 24.4043C254.094 23.3613 254.217 22.166 254.217 20.8184Z" fill="#1E3A8A"/>
<defs>
<linearGradient id="paint0_linear_8_13" x1="29.5" y1="-13.3889" x2="29.5" y2="29.6667" gradientUnits="userSpaceOnUse">
<stop offset="0.44006" stop-color="#E5E7EB"/>
<stop offset="1" stop-color="#2563EB"/>
</linearGradient>
</defs>
</svg>
