<svg xmlns="http://www.w3.org/2000/svg" viewBox="0 0 35 26" fill="none" stroke="currentColor" stroke-width="1" stroke-linecap="round" stroke-linejoin="round">
  <path d="M0.5 25.1755C1.14723 25.1755 22.8833 25.1755 33.6704 25.1755"/>
  <path d="M2.52246 25.1755V12.9178C2.52246 12.504 2.77729 12.133 3.16348 11.9845L11.6809 8.70851C12.3359 8.45659 13.0399 8.94008 13.0399 9.64186V10.4221C13.0399 11.1095 13.7174 11.592 14.367 11.3671L22.2302 8.64521C22.8798 8.42036 23.5574 8.9028 23.5574 9.5902V10.422C23.5574 10.9742 24.0051 11.422 24.5574 11.422H24.6849C25.1944 11.422 25.6225 11.0388 25.6788 10.5324L26.6947 1.38957C26.7509 0.883136 27.179 0.5 27.6885 0.5H29.5263C30.0412 0.5 30.472 0.891096 30.5216 1.40368L31.6477 13.04V25.1755"/>

  <!-- маленькие “кнопки”: и stroke и fill через currentColor -->
  <path d="M7.59041 15.0626H6.75879C6.2065 15.0626 5.75879 15.5103 5.75879 16.0626V16.8942C5.75879 17.4465 6.2065 17.8942 6.75879 17.8942H7.59041C8.14269 17.8942 8.59041 17.4465 8.59041 16.8942V16.0626C8.59041 15.5103 8.14269 15.0626 7.59041 15.0626Z" fill="currentColor"/>
  <path d="M13.2537 15.0626H12.0176C11.4653 15.0626 11.0176 15.5103 11.0176 16.0626V16.8942C11.0176 17.4465 11.4653 17.8942 12.0176 17.8942H13.2537C13.806 17.8942 14.2537 17.4465 14.2537 16.8942V16.0626C14.2537 15.5103 13.806 15.0626 13.2537 15.0626Z" fill="currentColor"/>

  <path d="M26.6032 16.6805H18.4902C17.9379 16.6805 17.4902 17.1283 17.4902 17.6805V24.1754C17.4902 24.7277 17.938 25.1754 18.4902 25.1754H26.6032C27.1554 25.1754 27.6032 24.7277 27.6032 24.1754V17.6805C27.6032 17.1283 27.1554 16.6805 26.6032 16.6805Z"/>
  <path d="M17.4902 19.5122H27.6032"/>
  <path d="M17.4902 21.5349H27.6032"/>
</svg>