<svg width="145" height="119" viewBox="0 0 145 119" fill="none" xmlns="http://www.w3.org/2000/svg">
<path d="M137.36 0C99.3702 14.0559 47.713 45.0629 145 59.1608V90H85.7874C36.8138 72.2635 -21.4401 30.1611 134.813 0.479137C-13.4096 20.4988 25.5136 68.5012 63.5031 90H17.6611C-10.1413 66.4033 -25.6342 15.4638 134.813 0.479137C135.656 0.319062 136.504 0.159347 137.36 0Z" fill="white"/>
<path d="M9.334 96.06V114H6.084V96.06H9.334ZM14.898 96.06V98.712H0.52V96.06H14.898ZM24.0441 95.826C25.6041 95.826 26.8348 95.9993 27.7361 96.346C28.6548 96.6753 29.3048 97.256 29.6861 98.088C30.0674 98.9027 30.2581 100.064 30.2581 101.572C30.2581 103.08 30.0674 104.25 29.6861 105.082C29.3221 105.914 28.7154 106.495 27.8661 106.824C27.0168 107.153 25.8728 107.318 24.4341 107.318C23.6541 107.318 22.9001 107.292 22.1721 107.24C21.4614 107.188 20.7941 107.119 20.1701 107.032C19.5634 106.945 19.0434 106.859 18.6101 106.772C18.1768 106.668 17.8734 106.581 17.7001 106.512L17.7781 104.77C18.7661 104.77 19.7801 104.77 20.8201 104.77C21.8774 104.77 22.9261 104.77 23.9661 104.77C24.7288 104.753 25.3268 104.657 25.7601 104.484C26.2108 104.311 26.5228 103.999 26.6961 103.548C26.8868 103.08 26.9821 102.421 26.9821 101.572C26.9821 100.723 26.8868 100.073 26.6961 99.622C26.5228 99.154 26.2108 98.8333 25.7601 98.66C25.3268 98.4693 24.7288 98.374 23.9661 98.374C22.4408 98.374 21.1321 98.3827 20.0401 98.4C18.9481 98.4173 18.2028 98.4433 17.8041 98.478L17.4401 96.06C18.1334 95.9907 18.7834 95.9387 19.3901 95.904C20.0141 95.8693 20.6814 95.852 21.3921 95.852C22.1201 95.8347 23.0041 95.826 24.0441 95.826ZM20.6901 96.06V114H17.4401V96.06H20.6901ZM41.1111 96.06C41.3884 96.06 41.6311 96.138 41.8391 96.294C42.0471 96.45 42.1944 96.658 42.2811 96.918L47.7151 114H44.3871L40.2791 100.168C40.2097 99.8907 40.1404 99.6133 40.0711 99.336C40.0017 99.0587 39.9411 98.79 39.8891 98.53H39.1611C39.1091 98.79 39.0484 99.0587 38.9791 99.336C38.9097 99.6133 38.8317 99.8907 38.7451 100.168L34.6631 114H31.3351L36.7691 96.918C36.8384 96.658 36.9771 96.45 37.1851 96.294C37.4104 96.138 37.6617 96.06 37.9391 96.06H41.1111ZM44.1271 106.33V108.878H34.8971V106.33H44.1271ZM53.1399 96.06V114H49.8639V96.06H53.1399ZM60.6019 103.158V105.706H52.9319V103.158H60.6019ZM63.5659 96.06V114H60.3159V96.06H63.5659ZM74.3454 95.748C75.16 95.748 75.8534 95.774 76.4254 95.826C76.9974 95.8607 77.526 95.9213 78.0114 96.008C78.4967 96.0773 78.9994 96.1813 79.5194 96.32L79.2334 98.738C78.696 98.7033 78.1934 98.6773 77.7254 98.66C77.2574 98.6253 76.7547 98.5993 76.2174 98.582C75.6974 98.5647 75.0734 98.556 74.3454 98.556C73.34 98.556 72.5514 98.7553 71.9794 99.154C71.4074 99.5527 71 100.22 70.7574 101.156C70.532 102.092 70.4194 103.383 70.4194 105.03C70.4194 106.677 70.532 107.968 70.7574 108.904C71 109.84 71.4074 110.507 71.9794 110.906C72.5514 111.305 73.34 111.504 74.3454 111.504C75.5067 111.504 76.4774 111.487 77.2574 111.452C78.0547 111.4 78.8347 111.331 79.5974 111.244L79.8834 113.636C79.1034 113.879 78.2974 114.052 77.4654 114.156C76.6334 114.26 75.5934 114.312 74.3454 114.312C72.5427 114.312 71.104 114.017 70.0294 113.428C68.9547 112.821 68.1747 111.842 67.6894 110.49C67.2214 109.138 66.9874 107.318 66.9874 105.03C66.9874 102.742 67.2214 100.922 67.6894 99.57C68.1747 98.218 68.9547 97.2473 70.0294 96.658C71.104 96.0513 72.5427 95.748 74.3454 95.748ZM90.5974 96.06C90.8747 96.06 91.1174 96.138 91.3254 96.294C91.5334 96.45 91.6807 96.658 91.7674 96.918L97.2014 114H93.8734L89.7654 100.168C89.6961 99.8907 89.6267 99.6133 89.5574 99.336C89.4881 99.0587 89.4274 98.79 89.3754 98.53H88.6474C88.5954 98.79 88.5347 99.0587 88.4654 99.336C88.3961 99.6133 88.3181 99.8907 88.2314 100.168L84.1494 114H80.8214L86.2554 96.918C86.3247 96.658 86.4634 96.45 86.6714 96.294C86.8967 96.138 87.1481 96.06 87.4254 96.06H90.5974ZM93.6134 106.33V108.878H84.3834V106.33H93.6134ZM102.834 96.008C104.152 96.008 105.486 96.0167 106.838 96.034C108.19 96.0513 109.456 96.1207 110.634 96.242L110.504 98.634H104.108C103.588 98.634 103.198 98.764 102.938 99.024C102.678 99.284 102.548 99.6827 102.548 100.22V114H99.2983V99.596C99.2983 98.5213 99.6276 97.6547 100.286 96.996C100.962 96.3373 101.812 96.008 102.834 96.008ZM119.691 95.826C121.251 95.826 122.481 95.9993 123.383 96.346C124.301 96.6753 124.951 97.256 125.333 98.088C125.714 98.9027 125.905 100.064 125.905 101.572C125.905 103.08 125.714 104.25 125.333 105.082C124.969 105.914 124.362 106.495 123.513 106.824C122.663 107.153 121.519 107.318 120.081 107.318C119.301 107.318 118.547 107.292 117.819 107.24C117.108 107.188 116.441 107.119 115.817 107.032C115.21 106.945 114.69 106.859 114.257 106.772C113.823 106.668 113.52 106.581 113.347 106.512L113.425 104.77C114.413 104.77 115.427 104.77 116.467 104.77C117.524 104.77 118.573 104.77 119.613 104.77C120.375 104.753 120.973 104.657 121.407 104.484C121.857 104.311 122.169 103.999 122.343 103.548C122.533 103.08 122.629 102.421 122.629 101.572C122.629 100.723 122.533 100.073 122.343 99.622C122.169 99.154 121.857 98.8333 121.407 98.66C120.973 98.4693 120.375 98.374 119.613 98.374C118.087 98.374 116.779 98.3827 115.687 98.4C114.595 98.4173 113.849 98.4433 113.451 98.478L113.087 96.06C113.78 95.9907 114.43 95.9387 115.037 95.904C115.661 95.8693 116.328 95.852 117.039 95.852C117.767 95.8347 118.651 95.826 119.691 95.826ZM116.337 96.06V114H113.087V96.06H116.337ZM135.666 95.722C137.052 95.722 138.222 95.878 139.176 96.19C140.129 96.4847 140.892 96.9873 141.464 97.698C142.036 98.4087 142.452 99.362 142.712 100.558C142.989 101.754 143.128 103.245 143.128 105.03C143.128 106.798 142.989 108.289 142.712 109.502C142.452 110.698 142.036 111.651 141.464 112.362C140.892 113.073 140.129 113.584 139.176 113.896C138.222 114.191 137.052 114.338 135.666 114.338C134.314 114.338 133.161 114.191 132.208 113.896C131.254 113.584 130.483 113.073 129.894 112.362C129.304 111.651 128.88 110.698 128.62 109.502C128.36 108.289 128.23 106.798 128.23 105.03C128.23 103.245 128.36 101.754 128.62 100.558C128.88 99.362 129.304 98.4087 129.894 97.698C130.483 96.9873 131.254 96.4847 132.208 96.19C133.161 95.878 134.314 95.722 135.666 95.722ZM135.666 98.374C134.643 98.374 133.837 98.582 133.248 98.998C132.676 99.3967 132.268 100.081 132.026 101.052C131.783 102.005 131.662 103.331 131.662 105.03C131.662 106.729 131.783 108.063 132.026 109.034C132.268 109.987 132.676 110.672 133.248 111.088C133.837 111.487 134.643 111.686 135.666 111.686C136.706 111.686 137.512 111.487 138.084 111.088C138.673 110.672 139.089 109.987 139.332 109.034C139.574 108.063 139.696 106.729 139.696 105.03C139.696 103.331 139.574 102.005 139.332 101.052C139.089 100.081 138.673 99.3967 138.084 98.998C137.512 98.582 136.706 98.374 135.666 98.374Z" fill="white"/>
</svg>
