<svg width="162" height="60" viewBox="0 0 162 60" fill="none" xmlns="http://www.w3.org/2000/svg">
<path d="M81.4685 0C58.9368 8.43357 28.2988 27.0378 86 35.4965V54H50.8808C21.8344 43.3581 -12.7162 18.0967 79.958 0.287482C-7.9533 12.2993 15.1322 41.1007 37.6639 54H10.4748C-6.01482 39.842 -15.2037 9.27831 79.958 0.287482C80.4578 0.191437 80.9613 0.0956085 81.4685 0Z" fill="#2563EB"/>
<path d="M86 35.4965C28.5154 27.0378 59.0384 8.43357 81.4855 0C80.9802 0.0956085 80.4786 0.191437 79.9807 0.287482C-12.3456 18.0967 22.0753 43.3581 51.0126 54H86V35.4965Z" fill="url(#paint0_linear_8_13)"/>
<path d="M99.915 5.51562V24H96.1191V5.51562H99.915ZM105.603 5.51562V8.49902H90.5205V5.51562H105.603ZM109.982 12.9043V29.2812H106.326V10.2637H109.716L109.982 12.9043ZM118.679 16.9795V17.2461C118.679 18.2448 118.56 19.1715 118.323 20.0264C118.095 20.8812 117.756 21.626 117.308 22.2607C116.859 22.887 116.3 23.3779 115.632 23.7334C114.972 24.0804 114.21 24.2539 113.347 24.2539C112.509 24.2539 111.781 24.0846 111.163 23.7461C110.545 23.4076 110.025 22.9336 109.602 22.3242C109.187 21.7064 108.853 20.9912 108.599 20.1787C108.345 19.3662 108.15 18.4945 108.015 17.5635V16.8652C108.15 15.8665 108.345 14.9525 108.599 14.123C108.853 13.2852 109.187 12.5615 109.602 11.9521C110.025 11.3343 110.541 10.8561 111.15 10.5176C111.768 10.179 112.492 10.0098 113.321 10.0098C114.193 10.0098 114.959 10.1748 115.619 10.5049C116.288 10.835 116.846 11.3089 117.295 11.9268C117.752 12.5446 118.095 13.2809 118.323 14.1357C118.56 14.9906 118.679 15.9385 118.679 16.9795ZM115.01 17.2461V16.9795C115.01 16.3955 114.959 15.8581 114.857 15.3672C114.764 14.8678 114.612 14.432 114.4 14.0596C114.197 13.6872 113.926 13.3994 113.588 13.1963C113.258 12.9847 112.856 12.8789 112.382 12.8789C111.882 12.8789 111.455 12.9593 111.1 13.1201C110.753 13.2809 110.469 13.5137 110.249 13.8184C110.029 14.123 109.864 14.487 109.754 14.9102C109.644 15.3333 109.576 15.8115 109.551 16.3447V18.1094C109.593 18.7357 109.712 19.2985 109.906 19.7979C110.101 20.2887 110.401 20.6781 110.808 20.9658C111.214 21.2536 111.747 21.3975 112.407 21.3975C112.89 21.3975 113.296 21.2917 113.626 21.0801C113.956 20.86 114.223 20.5596 114.426 20.1787C114.637 19.7979 114.785 19.3577 114.87 18.8584C114.963 18.359 115.01 17.8216 115.01 17.2461ZM128.365 20.9023V14.7832C128.365 14.3431 128.293 13.9665 128.149 13.6533C128.006 13.3317 127.781 13.082 127.477 12.9043C127.18 12.7266 126.795 12.6377 126.321 12.6377C125.915 12.6377 125.564 12.7096 125.268 12.8535C124.971 12.9889 124.743 13.1878 124.582 13.4502C124.421 13.7041 124.341 14.0046 124.341 14.3516H120.685C120.685 13.7676 120.82 13.2132 121.091 12.6885C121.362 12.1637 121.755 11.7025 122.271 11.3047C122.788 10.8984 123.401 10.5811 124.112 10.3525C124.832 10.124 125.636 10.0098 126.524 10.0098C127.591 10.0098 128.539 10.1875 129.368 10.543C130.198 10.8984 130.849 11.4316 131.323 12.1426C131.806 12.8535 132.047 13.7422 132.047 14.8086V20.6865C132.047 21.4398 132.093 22.0576 132.187 22.54C132.28 23.014 132.415 23.4287 132.593 23.7842V24H128.898C128.721 23.6276 128.585 23.1621 128.492 22.6035C128.408 22.0365 128.365 21.4694 128.365 20.9023ZM128.848 15.6338L128.873 17.7031H126.829C126.347 17.7031 125.928 17.7581 125.572 17.8682C125.217 17.9782 124.925 18.1348 124.696 18.3379C124.468 18.5326 124.299 18.7611 124.188 19.0234C124.087 19.2858 124.036 19.5736 124.036 19.8867C124.036 20.1999 124.108 20.4834 124.252 20.7373C124.396 20.9827 124.603 21.1774 124.874 21.3213C125.145 21.4567 125.462 21.5244 125.826 21.5244C126.376 21.5244 126.854 21.4144 127.261 21.1943C127.667 20.9743 127.98 20.7035 128.2 20.3818C128.429 20.0602 128.547 19.7555 128.556 19.4678L129.521 21.0166C129.385 21.3636 129.199 21.7233 128.962 22.0957C128.733 22.4681 128.441 22.8193 128.086 23.1494C127.73 23.471 127.303 23.7376 126.804 23.9492C126.304 24.1523 125.712 24.2539 125.026 24.2539C124.155 24.2539 123.363 24.0804 122.652 23.7334C121.95 23.3779 121.391 22.8913 120.977 22.2734C120.57 21.6471 120.367 20.9362 120.367 20.1406C120.367 19.4212 120.503 18.7822 120.773 18.2236C121.044 17.665 121.442 17.1953 121.967 16.8145C122.5 16.4251 123.164 16.1331 123.96 15.9385C124.756 15.7354 125.678 15.6338 126.728 15.6338H128.848ZM144.272 15.8115V18.6553H137.29V15.8115H144.272ZM138.509 10.2637V24H134.853V10.2637H138.509ZM146.748 10.2637V24H143.079V10.2637H146.748ZM155.267 21.3975C155.715 21.3975 156.113 21.3128 156.46 21.1436C156.807 20.9658 157.078 20.7204 157.272 20.4072C157.476 20.0856 157.581 19.709 157.59 19.2773H161.03C161.022 20.2422 160.764 21.1012 160.256 21.8545C159.748 22.5993 159.067 23.1875 158.212 23.6191C157.357 24.0423 156.401 24.2539 155.343 24.2539C154.276 24.2539 153.345 24.0762 152.55 23.7207C151.763 23.3652 151.107 22.8743 150.582 22.248C150.057 21.6133 149.664 20.877 149.401 20.0391C149.139 19.1927 149.008 18.2871 149.008 17.3223V16.9541C149.008 15.9808 149.139 15.0752 149.401 14.2373C149.664 13.391 150.057 12.6546 150.582 12.0283C151.107 11.3936 151.763 10.8984 152.55 10.543C153.337 10.1875 154.259 10.0098 155.317 10.0098C156.443 10.0098 157.429 10.2256 158.275 10.6572C159.13 11.0889 159.799 11.7067 160.281 12.5107C160.772 13.3063 161.022 14.25 161.03 15.3418H157.59C157.581 14.8848 157.484 14.4701 157.298 14.0977C157.12 13.7253 156.858 13.429 156.511 13.209C156.172 12.9805 155.753 12.8662 155.254 12.8662C154.721 12.8662 154.285 12.9805 153.946 13.209C153.608 13.429 153.345 13.7337 153.159 14.123C152.973 14.5039 152.842 14.9398 152.766 15.4307C152.698 15.9131 152.664 16.4209 152.664 16.9541V17.3223C152.664 17.8555 152.698 18.3675 152.766 18.8584C152.833 19.3493 152.96 19.7852 153.146 20.166C153.341 20.5469 153.608 20.8473 153.946 21.0674C154.285 21.2874 154.725 21.3975 155.267 21.3975ZM99.166 38.6768L94.1387 54H90.0889L96.957 35.5156H99.5342L99.166 38.6768ZM103.343 54L98.3027 38.6768L97.8965 35.5156H100.499L107.405 54H103.343ZM103.114 47.1191V50.1025H93.3516V47.1191H103.114ZM117.828 40.2637V43.1328H112.115V54H108.459V40.2637H117.828ZM123.059 42.9043V59.2812H119.402V40.2637H122.792L123.059 42.9043ZM131.755 46.9795V47.2461C131.755 48.2448 131.636 49.1715 131.399 50.0264C131.171 50.8812 130.832 51.626 130.384 52.2607C129.935 52.887 129.377 53.3779 128.708 53.7334C128.048 54.0804 127.286 54.2539 126.423 54.2539C125.585 54.2539 124.857 54.0846 124.239 53.7461C123.621 53.4076 123.101 52.9336 122.678 52.3242C122.263 51.7064 121.929 50.9912 121.675 50.1787C121.421 49.3662 121.226 48.4945 121.091 47.5635V46.8652C121.226 45.8665 121.421 44.9525 121.675 44.123C121.929 43.2852 122.263 42.5615 122.678 41.9521C123.101 41.3343 123.617 40.8561 124.227 40.5176C124.844 40.179 125.568 40.0098 126.397 40.0098C127.269 40.0098 128.035 40.1748 128.695 40.5049C129.364 40.835 129.923 41.3089 130.371 41.9268C130.828 42.5446 131.171 43.2809 131.399 44.1357C131.636 44.9906 131.755 45.9385 131.755 46.9795ZM128.086 47.2461V46.9795C128.086 46.3955 128.035 45.8581 127.934 45.3672C127.84 44.8678 127.688 44.432 127.477 44.0596C127.273 43.6872 127.003 43.3994 126.664 43.1963C126.334 42.9847 125.932 42.8789 125.458 42.8789C124.959 42.8789 124.531 42.9593 124.176 43.1201C123.829 43.2809 123.545 43.5137 123.325 43.8184C123.105 44.123 122.94 44.487 122.83 44.9102C122.72 45.3333 122.652 45.8115 122.627 46.3447V48.1094C122.669 48.7357 122.788 49.2985 122.982 49.7979C123.177 50.2887 123.478 50.6781 123.884 50.9658C124.29 51.2536 124.823 51.3975 125.483 51.3975C125.966 51.3975 126.372 51.2917 126.702 51.0801C127.032 50.86 127.299 50.5596 127.502 50.1787C127.714 49.7979 127.862 49.3577 127.946 48.8584C128.039 48.359 128.086 47.8216 128.086 47.2461ZM133.443 47.2715V47.0049C133.443 45.9977 133.587 45.071 133.875 44.2246C134.163 43.3698 134.582 42.6292 135.132 42.0029C135.682 41.3766 136.359 40.89 137.163 40.543C137.967 40.1875 138.89 40.0098 139.931 40.0098C140.972 40.0098 141.898 40.1875 142.711 40.543C143.523 40.89 144.205 41.3766 144.755 42.0029C145.313 42.6292 145.737 43.3698 146.024 44.2246C146.312 45.071 146.456 45.9977 146.456 47.0049V47.2715C146.456 48.2702 146.312 49.1969 146.024 50.0518C145.737 50.8981 145.313 51.6387 144.755 52.2734C144.205 52.8997 143.528 53.3864 142.724 53.7334C141.92 54.0804 140.997 54.2539 139.956 54.2539C138.915 54.2539 137.988 54.0804 137.176 53.7334C136.372 53.3864 135.69 52.8997 135.132 52.2734C134.582 51.6387 134.163 50.8981 133.875 50.0518C133.587 49.1969 133.443 48.2702 133.443 47.2715ZM137.1 47.0049V47.2715C137.1 47.847 137.15 48.3844 137.252 48.8838C137.354 49.3831 137.514 49.8232 137.734 50.2041C137.963 50.5765 138.259 50.8685 138.623 51.0801C138.987 51.2917 139.431 51.3975 139.956 51.3975C140.464 51.3975 140.9 51.2917 141.264 51.0801C141.628 50.8685 141.92 50.5765 142.14 50.2041C142.36 49.8232 142.521 49.3831 142.622 48.8838C142.732 48.3844 142.787 47.847 142.787 47.2715V47.0049C142.787 46.4463 142.732 45.9215 142.622 45.4307C142.521 44.9313 142.355 44.4912 142.127 44.1104C141.907 43.721 141.615 43.4163 141.251 43.1963C140.887 42.9762 140.447 42.8662 139.931 42.8662C139.414 42.8662 138.974 42.9762 138.61 43.1963C138.255 43.4163 137.963 43.721 137.734 44.1104C137.514 44.4912 137.354 44.9313 137.252 45.4307C137.15 45.9215 137.1 46.4463 137.1 47.0049Z" fill="#1E3A8A"/>
<defs>
<linearGradient id="paint0_linear_8_13" x1="53" y1="-29.5" x2="53" y2="48" gradientUnits="userSpaceOnUse">
<stop offset="0.44006" stop-color="#E5E7EB"/>
<stop offset="1" stop-color="#2563EB"/>
</linearGradient>
</defs>
</svg>
