<svg width="138" height="117" viewBox="0 0 138 117" fill="none" xmlns="http://www.w3.org/2000/svg">
<path d="M130.729 0C94.573 13.4312 45.4097 43.0601 138 56.5315V86H81.646C35.0366 69.0518 -20.405 28.8206 128.305 0.457842C-12.7623 19.5878 24.2819 65.4567 60.4374 86H16.8085C-9.65169 63.4521 -24.3967 14.7766 128.305 0.457842C129.107 0.304881 129.915 0.152265 130.729 0Z" fill="white"/>
<path d="M13.18 94.06L10.658 112H6.68L9.202 94.06H13.18ZM18.536 94.06L18.12 97.18H3.404L3.846 94.06H18.536ZM26.7041 98.844C27.6921 98.844 28.4721 99.0867 29.0441 99.572C29.6334 100.057 30.0147 100.811 30.1881 101.834C30.3787 102.839 30.3614 104.174 30.1361 105.838C29.9454 107.225 29.6681 108.351 29.3041 109.218C28.9574 110.067 28.5241 110.717 28.0041 111.168C27.5014 111.619 26.9121 111.931 26.2361 112.104C25.5774 112.277 24.8407 112.364 24.0261 112.364C23.5927 112.364 23.1161 112.338 22.5961 112.286C22.0761 112.251 21.5387 112.191 20.9841 112.104C20.4294 112.035 19.9007 111.939 19.3981 111.818C18.8954 111.697 18.4621 111.558 18.0981 111.402L18.6701 109.712C19.4501 109.729 20.1607 109.747 20.8021 109.764C21.4434 109.781 22.0761 109.79 22.7001 109.79C23.3587 109.79 23.8874 109.738 24.2861 109.634C24.6847 109.53 25.0054 109.339 25.2481 109.062C25.4907 108.785 25.6814 108.386 25.8201 107.866C25.9587 107.346 26.0887 106.67 26.2101 105.838C26.3661 104.781 26.4354 103.975 26.4181 103.42C26.4181 102.848 26.3141 102.458 26.1061 102.25C25.9154 102.025 25.6034 101.912 25.1701 101.912C24.8234 101.912 24.4074 102.025 23.9221 102.25C23.4367 102.458 22.9341 102.761 22.4141 103.16C21.8941 103.541 21.4001 103.992 20.9321 104.512L20.2301 102.926C20.4727 102.545 20.8194 102.129 21.2701 101.678C21.7207 101.21 22.2407 100.759 22.8301 100.326C23.4194 99.8927 24.0434 99.5373 24.7021 99.26C25.3607 98.9827 26.0281 98.844 26.7041 98.844ZM21.3221 99.156L21.2181 102.25L21.6081 102.562L20.4641 111.324L20.2041 111.74C20.2214 112.191 20.2127 112.624 20.1781 113.04C20.1607 113.473 20.1087 113.941 20.0221 114.444L19.6061 116.966H15.7581L18.2541 99.156H21.3221ZM39.9031 98.818C40.3538 98.818 40.8565 98.844 41.4111 98.896C41.9831 98.9307 42.5551 98.9827 43.1271 99.052C43.7165 99.1213 44.2625 99.1993 44.7651 99.286C45.2678 99.3727 45.6925 99.4593 46.0391 99.546L43.4131 101.626C42.7198 101.591 42.0871 101.574 41.5151 101.574C40.9431 101.557 40.4058 101.548 39.9031 101.548C39.3311 101.548 38.8458 101.591 38.4471 101.678C38.0485 101.765 37.7191 101.938 37.4591 102.198C37.1991 102.441 36.9825 102.813 36.8091 103.316C36.6358 103.819 36.4885 104.495 36.3671 105.344C36.2111 106.419 36.1245 107.242 36.1071 107.814C36.1071 108.369 36.2025 108.75 36.3931 108.958C36.6011 109.166 36.9391 109.261 37.4071 109.244C37.8751 109.227 38.3605 109.071 38.8631 108.776C39.3831 108.481 39.8945 108.083 40.3971 107.58C40.8998 107.06 41.3851 106.479 41.8531 105.838L42.5031 107.086C42.1565 108.109 41.6625 109.01 41.0211 109.79C40.3971 110.553 39.6605 111.151 38.8111 111.584C37.9791 112.017 37.0431 112.26 36.0031 112.312C34.8765 112.364 34.0098 112.139 33.4031 111.636C32.8138 111.133 32.4498 110.353 32.3111 109.296C32.1725 108.239 32.2158 106.913 32.4411 105.318C32.6665 103.845 32.9871 102.675 33.4031 101.808C33.8191 100.924 34.3305 100.274 34.9371 99.858C35.5611 99.4247 36.2891 99.1473 37.1211 99.026C37.9531 98.8873 38.8805 98.818 39.9031 98.818ZM42.2431 99.312L46.0391 99.546L44.2711 112H41.2811L41.3591 109.088L40.8911 108.776L42.2431 99.312ZM53.0774 99.156L51.2834 112H47.4874L49.2814 99.156H53.0774ZM57.5234 103.914L57.1594 106.54H51.8814L52.2454 103.914H57.5234ZM61.7354 99.156L59.9154 112H56.1454L57.9394 99.156H61.7354ZM70.5634 98.818C71.3781 98.818 72.2448 98.8873 73.1634 99.026C74.0821 99.1473 74.8881 99.3553 75.5814 99.65L75.0354 102.016C74.2728 101.981 73.5448 101.964 72.8514 101.964C72.1581 101.947 71.5688 101.938 71.0834 101.938C70.3034 101.938 69.6708 102.042 69.1854 102.25C68.7174 102.458 68.3534 102.831 68.0934 103.368C67.8334 103.888 67.6341 104.625 67.4954 105.578C67.3568 106.583 67.3394 107.346 67.4434 107.866C67.5648 108.386 67.8248 108.741 68.2234 108.932C68.6221 109.123 69.1941 109.218 69.9394 109.218C70.2514 109.218 70.6328 109.209 71.0834 109.192C71.5341 109.175 72.0194 109.157 72.5394 109.14C73.0594 109.105 73.5621 109.053 74.0474 108.984L74.3074 111.48C73.5621 111.775 72.7388 111.983 71.8374 112.104C70.9534 112.243 70.0954 112.312 69.2634 112.312C67.7728 112.312 66.5508 112.087 65.5974 111.636C64.6614 111.168 64.0201 110.431 63.6734 109.426C63.3268 108.403 63.2661 107.069 63.4914 105.422C63.7341 103.827 64.1068 102.553 64.6094 101.6C65.1294 100.629 65.8661 99.9273 66.8194 99.494C67.7728 99.0433 69.0208 98.818 70.5634 98.818ZM87.6381 94.06C87.9674 94.06 88.2534 94.1727 88.4961 94.398C88.7388 94.606 88.8774 94.866 88.9121 95.178L91.7461 112H87.7681L86.0261 98.792C85.9914 98.48 85.9654 98.1767 85.9481 97.882C85.9308 97.5873 85.9221 97.3013 85.9221 97.024H85.1681C85.0814 97.2667 84.9861 97.544 84.8821 97.856C84.7954 98.168 84.6914 98.4713 84.5701 98.766L79.0321 112H74.8721L82.4381 95.048C82.5594 94.7187 82.7414 94.476 82.9841 94.32C83.2441 94.1467 83.5388 94.06 83.8681 94.06H87.6381ZM89.0161 104.252L88.6521 107.32H79.3961L79.7601 104.252H89.0161ZM100.441 98.818C101.204 98.8007 101.923 98.8353 102.599 98.922C103.275 99.0087 103.864 99.1733 104.367 99.416C104.887 99.6587 105.277 100.014 105.537 100.482C105.814 100.933 105.918 101.522 105.849 102.25C105.814 102.978 105.632 103.585 105.303 104.07C104.991 104.555 104.61 104.945 104.159 105.24C103.726 105.535 103.301 105.76 102.885 105.916C102.469 106.072 102.122 106.185 101.845 106.254L98.5169 107.32C97.8929 107.493 97.4682 107.667 97.2429 107.84C97.0175 108.013 96.8962 108.239 96.8789 108.516C96.8442 108.793 96.9049 109.001 97.0609 109.14C97.2169 109.279 97.4769 109.365 97.8409 109.4C98.2222 109.417 98.7075 109.417 99.2969 109.4C100.008 109.365 100.675 109.322 101.299 109.27C101.923 109.201 102.521 109.123 103.093 109.036C103.665 108.932 104.22 108.811 104.757 108.672L105.017 111.22C104.324 111.445 103.639 111.645 102.963 111.818C102.304 111.974 101.628 112.095 100.935 112.182C100.259 112.269 99.5482 112.312 98.8029 112.312C97.5375 112.312 96.4629 112.182 95.5789 111.922C94.6949 111.662 94.0449 111.255 93.6289 110.7C93.2129 110.128 93.0569 109.374 93.1609 108.438C93.2649 107.415 93.6202 106.635 94.2269 106.098C94.8509 105.543 95.7002 105.101 96.7749 104.772L100.077 103.732C100.753 103.524 101.264 103.325 101.611 103.134C101.958 102.943 102.131 102.683 102.131 102.354C102.166 102.129 102.114 101.964 101.975 101.86C101.836 101.739 101.585 101.669 101.221 101.652C100.857 101.617 100.354 101.609 99.7129 101.626C99.3662 101.643 99.0455 101.669 98.7509 101.704C98.4562 101.721 98.1269 101.756 97.7629 101.808C97.4162 101.843 96.9915 101.895 96.4889 101.964C95.9862 102.016 95.3622 102.094 94.6169 102.198L94.5389 99.806C95.3882 99.5113 96.3242 99.2773 97.3469 99.104C98.3695 98.9307 99.4009 98.8353 100.441 98.818ZM117.501 98.844C118.489 98.844 119.269 99.0867 119.841 99.572C120.43 100.057 120.812 100.811 120.985 101.834C121.176 102.839 121.158 104.174 120.933 105.838C120.742 107.225 120.465 108.351 120.101 109.218C119.754 110.067 119.321 110.717 118.801 111.168C118.298 111.619 117.709 111.931 117.033 112.104C116.374 112.277 115.638 112.364 114.823 112.364C114.39 112.364 113.913 112.338 113.393 112.286C112.873 112.251 112.336 112.191 111.781 112.104C111.226 112.035 110.698 111.939 110.195 111.818C109.692 111.697 109.259 111.558 108.895 111.402L109.467 109.712C110.247 109.729 110.958 109.747 111.599 109.764C112.24 109.781 112.873 109.79 113.497 109.79C114.156 109.79 114.684 109.738 115.083 109.634C115.482 109.53 115.802 109.339 116.045 109.062C116.288 108.785 116.478 108.386 116.617 107.866C116.756 107.346 116.886 106.67 117.007 105.838C117.163 104.781 117.232 103.975 117.215 103.42C117.215 102.848 117.111 102.458 116.903 102.25C116.712 102.025 116.4 101.912 115.967 101.912C115.62 101.912 115.204 102.025 114.719 102.25C114.234 102.458 113.731 102.761 113.211 103.16C112.691 103.541 112.197 103.992 111.729 104.512L111.027 102.926C111.27 102.545 111.616 102.129 112.067 101.678C112.518 101.21 113.038 100.759 113.627 100.326C114.216 99.8927 114.84 99.5373 115.499 99.26C116.158 98.9827 116.825 98.844 117.501 98.844ZM112.119 99.156L112.015 102.25L112.405 102.562L111.261 111.324L111.001 111.74C111.018 112.191 111.01 112.624 110.975 113.04C110.958 113.473 110.906 113.941 110.819 114.444L110.403 116.966H106.555L109.051 99.156H112.119ZM130.518 98.818C132.095 98.818 133.361 99.052 134.314 99.52C135.267 99.9707 135.909 100.699 136.238 101.704C136.585 102.709 136.637 104.061 136.394 105.76C136.169 107.372 135.779 108.663 135.224 109.634C134.687 110.587 133.924 111.272 132.936 111.688C131.948 112.104 130.665 112.312 129.088 112.312C127.528 112.312 126.263 112.087 125.292 111.636C124.339 111.185 123.68 110.457 123.316 109.452C122.969 108.447 122.909 107.112 123.134 105.448C123.377 103.819 123.767 102.527 124.304 101.574C124.841 100.603 125.613 99.9013 126.618 99.468C127.641 99.0347 128.941 98.818 130.518 98.818ZM130.466 101.626C129.773 101.626 129.209 101.739 128.776 101.964C128.36 102.189 128.022 102.597 127.762 103.186C127.519 103.775 127.311 104.633 127.138 105.76C126.999 106.748 126.965 107.519 127.034 108.074C127.103 108.629 127.311 109.01 127.658 109.218C128.005 109.426 128.516 109.53 129.192 109.53C129.885 109.53 130.431 109.417 130.83 109.192C131.246 108.949 131.575 108.533 131.818 107.944C132.061 107.355 132.26 106.523 132.416 105.448C132.572 104.425 132.615 103.645 132.546 103.108C132.477 102.553 132.277 102.172 131.948 101.964C131.619 101.739 131.125 101.626 130.466 101.626Z" fill="white"/>
</svg>
